<?xml version="1.0" standalone="no"?>
<!DOCTYPE svg PUBLIC "-//W3C//DTD SVG 20010904//EN"
 "http://www.w3.org/TR/2001/REC-SVG-20010904/DTD/svg10.dtd">
<svg version="1.0" xmlns="http://www.w3.org/2000/svg"
 width="480.000000pt" height="480.000000pt" viewBox="0 0 480.000000 480.000000"
 preserveAspectRatio="xMidYMid meet">
<metadata>
Created by potrace 1.14, written by Peter Selinger 2001-2017
</metadata>
<g transform="translate(0.000000,480.000000) scale(0.100000,-0.100000)"
fill="#000000" stroke="none">
<path d="M1699 3471 c0 -9 -2 -103 -2 -209 l-2 -192 30 0 c17 -1 290 -2 607
-3 317 -1 580 -6 584 -10 4 -4 2 -7 -4 -7 -6 0 -17 -6 -24 -13 -7 -7 -52 -41
-100 -77 -49 -36 -88 -68 -88 -72 0 -5 -5 -8 -11 -8 -6 0 -16 -6 -24 -12 -21
-21 -48 -42 -78 -61 -16 -10 -36 -25 -45 -32 -18 -15 -116 -89 -592 -448 -168
-126 -312 -236 -319 -243 -13 -11 105 -13 729 -11 l743 2 -1 190 c0 105 -1
198 -1 208 -1 16 -22 17 -338 17 -342 -1 -363 -3 -363 -39 1 -46 3 -46 312
-48 161 -1 296 -2 301 -2 4 -1 7 -55 7 -121 0 -107 -2 -120 -17 -121 -92 -4
-1114 -1 -1116 4 -1 3 106 88 238 187 132 99 247 186 255 193 9 6 60 45 115
86 55 41 105 80 112 85 7 6 136 103 287 216 151 113 275 208 275 211 2 13 -79
14 -732 13 l-657 -2 3 121 2 122 570 2 570 2 -40 -32 c-88 -71 -88 -72 -82
-99 4 -14 13 -28 22 -31 14 -6 62 14 74 30 3 4 29 24 56 43 28 19 55 38 60 42
105 83 139 108 146 108 5 0 9 6 9 13 0 11 -135 13 -735 14 -667 0 -735 -2
-736 -16z"/>
<path d="M2378 2980 c-9 -6 -121 -89 -250 -186 -128 -97 -293 -221 -365 -276
-73 -55 -133 -103 -133 -107 0 -4 77 -7 170 -7 174 1 190 4 190 41 0 32 -22
42 -93 44 -24 1 -4 19 131 120 88 65 168 126 178 135 18 14 36 28 143 108 96
72 97 73 86 104 -11 31 -31 39 -57 24z"/>
<path d="M1619 1875 c-1 0 -3 -44 -4 -98 l-2 -98 61 2 c37 1 68 8 79 17 21 18
22 55 2 72 -11 9 -12 17 -4 32 13 23 4 68 -14 69 -12 1 -116 5 -118 4z m119
-27 c14 -18 -3 -58 -25 -59 -10 0 -33 -2 -50 -3 -32 -2 -33 -1 -33 36 l0 38
49 0 c27 0 53 -6 59 -12z m6 -94 c18 -18 6 -53 -19 -55 -86 -8 -90 -6 -93 34
l-3 37 50 0 c32 0 55 -6 65 -16z"/>
<path d="M1997 1864 c-34 -18 -55 -63 -49 -104 13 -89 153 -108 188 -25 37 90
-56 176 -139 129z m105 -26 c36 -35 36 -82 -1 -118 -23 -23 -37 -29 -57 -26
-35 7 -74 33 -75 51 -5 54 -1 73 21 95 28 28 82 26 112 -2z"/>
<path d="M2339 1867 c-5 -50 -3 -180 4 -184 7 -4 11 18 8 43 -1 7 5 14 13 17
27 11 61 -2 86 -33 35 -42 47 -38 14 5 -14 19 -21 35 -15 35 6 0 17 13 26 30
17 33 6 73 -24 86 -31 12 -111 14 -112 1z m120 -39 c14 -24 14 -28 -3 -47 -14
-15 -31 -21 -61 -21 l-42 0 0 51 -1 50 46 -3 c38 -2 49 -8 61 -30z"/>
<path d="M2664 1869 c-3 -5 11 -9 30 -9 l36 0 0 -74 c0 -85 -11 -103 -54 -86
-37 14 -45 12 -22 -5 22 -17 54 -19 74 -6 9 5 15 38 18 98 l4 89 -40 1 c-22 0
-43 -3 -46 -8z"/>
<path d="M2962 1785 c-45 -100 -47 -105 -33 -105 5 0 12 13 16 28 6 27 8 28
65 28 55 -1 60 -3 71 -28 6 -16 16 -28 21 -28 5 0 7 3 5 8 -14 25 -77 165 -77
172 0 4 -6 10 -13 13 -8 3 -27 -27 -55 -88z m95 -32 c-6 -6 -77 -6 -83 0 -4 3
3 28 16 54 l22 47 24 -49 c13 -27 22 -50 21 -52z"/>
<path d="M1617 1545 c-2 -5 -1 -19 1 -32 3 -18 12 -23 49 -25 l44 -3 -28 -34
c-15 -19 -36 -44 -47 -54 -10 -11 -20 -33 -21 -48 l-3 -29 108 0 108 0 -1 32
c-2 32 -3 33 -49 32 -27 -1 -48 2 -48 6 0 4 14 23 30 41 45 49 66 82 64 97 -1
6 -2 16 -3 21 -1 12 -200 9 -204 -4z"/>
<path d="M2090 1540 c-13 -24 -90 -208 -90 -214 0 -4 18 -6 39 -6 31 0 41 4
46 20 5 16 15 20 50 20 35 0 45 -4 50 -20 5 -16 15 -20 46 -20 21 0 39 4 39 8
0 9 -63 159 -84 201 -14 26 -21 30 -52 28 -20 -1 -39 -9 -44 -17z m54 -118
c-22 -5 -27 3 -19 29 l7 22 14 -24 c11 -20 10 -25 -2 -27z"/>
<path d="M2453 1524 c-1 -33 0 -33 48 -36 l49 -3 -22 -25 c-58 -64 -78 -93
-78 -116 l0 -25 108 3 c99 3 107 4 108 23 1 32 -12 41 -55 39 -24 0 -41 4 -41
10 0 6 21 34 45 61 33 36 45 57 43 75 -3 25 -4 25 -103 26 l-101 0 -1 -32z"/>
<path d="M2904 1540 c-38 -26 -55 -56 -56 -101 -1 -88 94 -148 181 -113 132
54 87 239 -57 232 -23 -1 -54 -9 -68 -18z m119 -84 c11 -32 -13 -76 -43 -76
-48 0 -69 76 -29 104 28 19 60 7 72 -28z"/>
</g>
</svg>
